<mxfile host="app.diagrams.net" modified="2024-05-20T07:32:50.524Z" agent="Mozilla/5.0 (Windows NT 10.0; Win64; x64) AppleWebKit/537.36 (KHTML, like Gecko) Chrome/124.0.0.0 Safari/537.36" version="24.4.4" etag="izP9DQZWRF44fGZrq7mg" type="github">
  <diagram name="第 1 页" id="FUzc-Egi0lNxHVti3KfQ">
    <mxGraphModel>
      <root>
        <mxCell id="0" />
        <mxCell id="1" parent="0" />
      </root>
    </mxGraphModel>
  </diagram>
</mxfile>
